<?xml version="1.0" standalone="no"?>
<!DOCTYPE svg PUBLIC "-//W3C//DTD SVG 20010904//EN"
 "http://www.w3.org/TR/2001/REC-SVG-20010904/DTD/svg10.dtd">
<svg version="1.0" xmlns="http://www.w3.org/2000/svg"
 width="30.0000000pt" height="36.600000pt" viewBox="0 0 640.000000 1136.000000"
 preserveAspectRatio="xMidYMid meet">
<g transform="translate(0.000000,1136.000000) scale(0.100000,-0.100000)"
fill="#ffffff" stroke="none">
<path d="M2810 10509 c-121 -7 -231 -23 -290 -40 -19 -5 -87 -20 -150 -34
-144 -30 -383 -111 -517 -176 -246 -118 -483 -324 -622 -539 -59 -91 -137
-258 -176 -375 -206 -627 -71 -1266 413 -1965 66 -95 148 -204 202 -270 271
-330 343 -410 670 -750 104 -107 208 -208 232 -223 79 -49 196 -189 254 -302
l29 -57 65 9 c68 8 244 10 465 4 88 -2 146 1 179 11 49 13 49 13 66 74 30 111
105 202 394 484 249 243 544 578 748 850 392 524 592 957 643 1399 41 347 -7
641 -155 946 -173 359 -463 613 -891 784 -139 55 -237 84 -344 100 -38 6 -112
18 -164 26 -52 8 -115 15 -140 15 -25 0 -64 5 -86 10 -59 15 -472 22 -510 10
-24 -8 -40 -7 -68 5 -38 16 -62 16 -247 4z"/>
<path d="M3217 5473 c-6 -13 -2 -27 11 -48 9 -14 15 -16 18 -7 11 24 25 11 22
-20 -3 -28 -7 -34 -32 -36 -19 -2 -32 2 -38 12 -5 9 -16 16 -23 16 -8 0 -15 7
-15 15 0 8 -5 15 -11 15 -5 0 -8 -4 -4 -10 6 -9 -7 -25 -63 -82 -26 -27 -26
-28 -7 -42 11 -9 23 -16 27 -16 4 0 7 -15 6 -33 -1 -19 2 -38 5 -43 3 -6 2
-16 -3 -24 -10 -16 -15 -7 -22 33 -3 16 -7 14 -35 -13 -28 -28 -32 -38 -38
-113 -4 -45 -5 -107 -3 -137 l3 -55 188 -3 c103 -1 188 1 189 5 5 28 8 74 6
108 -1 22 -1 56 0 75 1 19 0 59 -4 88 -4 40 -9 52 -23 52 -14 0 -17 9 -17 49
0 30 -9 66 -22 92 -11 24 -23 52 -26 62 -3 9 -17 22 -31 27 -14 5 -25 16 -25
25 0 15 -26 21 -33 8z"/>
</g>
</svg>
